<?xml version="1.0" standalone="no"?>
<!DOCTYPE svg PUBLIC "-//W3C//DTD SVG 20010904//EN"
 "http://www.w3.org/TR/2001/REC-SVG-20010904/DTD/svg10.dtd">
<svg version="1.0" xmlns="http://www.w3.org/2000/svg"
 width="450.000000pt" height="450.000000pt" viewBox="0 0 450.000000 450.000000"
 preserveAspectRatio="xMidYMid meet">
<metadata>
Created by potrace 1.11, written by Peter Selinger 2001-2013
</metadata>
<g transform="translate(0.000000,450.000000) scale(0.100000,-0.100000)"
fill="#000000" stroke="none">
<path d="M2175 3723 l0 -136 28 -1 c26 -2 27 0 27 50 0 33 5 54 12 56 11 4 72
-69 81 -95 3 -10 67 -16 67 -7 0 4 -13 26 -30 48 -16 23 -30 46 -30 52 0 5 -3
10 -8 10 -4 0 -12 8 -19 19 -10 16 -5 27 38 77 l50 59 -28 3 c-23 3 -37 -6
-80 -55 l-53 -58 0 58 c0 56 -1 57 -28 57 l-27 0 0 -137z"/>
<path d="M1608 3825 c-2 -2 -25 -5 -53 -8 -45 -6 -100 -19 -175 -44 -115 -37
-256 -156 -308 -259 -61 -120 -62 -133 -66 -580 -3 -378 -6 -397 -62 -471 -42
-55 -148 -107 -243 -119 -48 -6 -107 -12 -129 -13 -10 -1 -12 -30 -10 -128 l3
-127 35 -2 c95 -7 144 -15 197 -34 90 -31 133 -68 173 -145 l35 -68 2 -346 c2
-381 5 -435 33 -515 78 -228 286 -359 608 -382 l82 -6 0 129 0 130 -44 1
c-176 7 -300 78 -348 201 -21 53 -22 72 -24 407 -2 374 -8 433 -51 517 -53
105 -167 188 -298 218 -30 7 -55 18 -55 24 0 6 24 17 53 24 121 27 224 95 282
186 61 97 67 139 69 529 1 232 6 365 14 391 40 137 169 225 347 237 l50 3 3
128 3 128 -61 -2 c-33 -1 -61 -3 -62 -4z"/>
<path d="M2762 3704 l3 -128 45 -3 c135 -8 249 -63 307 -148 50 -74 54 -105
57 -495 4 -382 6 -400 52 -491 52 -103 180 -191 313 -216 60 -11 50 -28 -27
-44 -121 -25 -234 -104 -286 -199 -45 -82 -53 -162 -53 -512 -1 -175 -4 -339
-8 -365 -24 -161 -159 -256 -378 -267 -21 -1 -22 -6 -25 -130 l-3 -128 90 6
c100 8 102 8 191 31 168 43 319 157 380 287 52 111 58 167 60 542 0 187 5 360
11 384 25 112 84 173 211 218 34 12 77 19 188 30 14 1 28 2 33 3 4 1 7 57 7
126 0 93 -3 125 -12 126 -88 4 -167 17 -238 41 -106 35 -173 114 -196 231 -2
11 -4 172 -4 356 -1 416 -12 482 -93 600 -59 86 -122 140 -222 189 -48 24
-126 51 -155 55 -3 0 -21 4 -40 9 -19 4 -75 11 -123 14 l-88 7 3 -129z"/>
<path d="M2175 3343 c0 -147 -2 -140 45 -134 6 0 10 21 10 45 0 64 22 67 62 8
37 -54 45 -61 67 -57 9 2 19 4 24 4 4 1 -8 24 -28 53 l-35 52 22 23 c26 28 31
68 12 104 -17 33 -23 36 -109 38 l-70 2 0 -138z m121 76 c32 -27 5 -69 -45
-69 -18 0 -21 6 -21 38 0 21 3 41 6 45 8 8 43 0 60 -14z"/>
<path d="M2150 3093 c0 -5 4 -13 9 -18 4 -6 25 -41 45 -78 28 -54 36 -80 36
-121 0 -55 -1 -54 51 -47 3 1 6 25 6 54 0 43 8 66 46 135 l46 82 -32 0 c-29 0
-35 -5 -56 -50 -13 -27 -27 -50 -31 -50 -4 0 -19 21 -33 48 -20 39 -30 48 -56
50 -17 2 -31 -1 -31 -5z"/>
<path d="M2210 2707 c-60 -31 -47 -106 24 -137 57 -26 73 -45 55 -66 -13 -16
-62 -15 -101 1 -14 6 -18 2 -18 -18 0 -31 7 -36 56 -40 59 -6 102 9 117 41 25
50 6 85 -61 113 -23 10 -45 25 -48 34 -8 20 15 47 35 41 60 -18 68 -18 74 3 3
14 -1 24 -11 29 -28 14 -95 13 -122 -1z"/>
<path d="M2155 2205 c0 -102 3 -135 12 -136 7 -1 19 -2 26 -3 8 -1 14 19 17
59 l5 60 55 0 55 0 1 -55 c1 -30 3 -58 3 -62 1 -5 11 -6 24 -4 21 3 22 7 25
139 l3 137 -29 0 c-28 0 -28 -1 -27 -55 l2 -55 -58 0 -59 0 0 55 c0 53 -1 55
-28 55 l-27 0 0 -135z"/>
<path d="M2154 1943 c2 -24 14 -32 47 -28 15 2 29 -1 31 -8 2 -7 4 -60 3 -118
l0 -106 27 0 27 0 3 116 3 115 35 1 c28 0 36 5 38 23 3 22 1 22 -106 22 -98 0
-110 -2 -108 -17z"/>
<path d="M2193 1564 c-59 -29 -80 -147 -37 -211 31 -48 136 -64 189 -29 76 50
66 201 -16 243 -33 17 -98 16 -136 -3z m125 -60 c19 -22 23 -35 19 -72 -10
-106 -127 -113 -144 -8 -15 94 67 147 125 80z"/>
<path d="M2176 1073 c2 -160 0 -148 29 -149 23 -2 25 1 25 47 0 32 4 50 13 51
6 0 17 2 22 3 6 2 19 3 30 4 71 5 96 113 37 157 -9 6 -47 12 -86 13 l-71 2 1
-128z m120 66 c30 -25 3 -68 -43 -69 -20 0 -23 5 -23 38 0 21 3 41 6 45 8 8
43 0 60 -14z"/>
<path d="M2210 763 c-62 -163 -79 -213 -75 -214 35 -8 51 0 66 31 14 29 22 35
53 35 43 2 49 -2 68 -39 11 -20 23 -30 42 -31 14 0 26 2 26 6 0 4 -22 65 -49
136 -47 122 -50 128 -79 131 -28 3 -31 0 -52 -55z m80 -95 c0 -5 -13 -8 -30
-8 -35 0 -35 -2 -14 51 l17 41 13 -39 c8 -21 14 -41 14 -45z"/>
</g>
</svg>
